<?xml version="1.0" encoding="utf-8" standalone="no"?>
<!DOCTYPE svg PUBLIC "-//W3C//DTD SVG 1.1//EN"
  "http://www.w3.org/Graphics/SVG/1.1/DTD/svg11.dtd">
<svg xmlns:xlink="http://www.w3.org/1999/xlink" width="432pt" height="288pt" viewBox="0 0 432 288" xmlns="http://www.w3.org/2000/svg" version="1.1">
 <metadata>
  <rdf:RDF xmlns:dc="http://purl.org/dc/elements/1.1/" xmlns:cc="http://creativecommons.org/ns#" xmlns:rdf="http://www.w3.org/1999/02/22-rdf-syntax-ns#">
   <cc:Work>
    <dc:type rdf:resource="http://purl.org/dc/dcmitype/StillImage"/>
    <dc:date>2026-01-28T14:16:44.526487</dc:date>
    <dc:format>image/svg+xml</dc:format>
    <dc:creator>
     <cc:Agent>
      <dc:title>Matplotlib v3.10.8, https://matplotlib.org/</dc:title>
     </cc:Agent>
    </dc:creator>
   </cc:Work>
  </rdf:RDF>
 </metadata>
 <defs>
  <style type="text/css">*{stroke-linejoin: round; stroke-linecap: butt}</style>
 </defs>
 <g id="figure_1">
  <g id="patch_1">
   <path d="M 0 288 
L 432 288 
L 432 0 
L 0 0 
z
" style="fill: #ffffff"/>
  </g>
  <g id="axes_1">
   <g id="patch_2">
    <path d="M 54 256.32 
L 388.8 256.32 
L 388.8 34.56 
L 54 34.56 
z
" style="fill: #ffffff"/>
   </g>
   <g id="matplotlib.axis_1">
    <g id="xtick_1">
     <g id="line2d_1">
      <defs>
       <path id="m99fb746170" d="M 0 0 
L 0 3.5 
" style="stroke: #000000; stroke-width: 0.8"/>
      </defs>
      <g>
       <use xlink:href="#m99fb746170" x="221.4" y="256.32" style="stroke: #000000; stroke-width: 0.8"/>
      </g>
     </g>
     <g id="text_1">
      <!-- 1 -->
      <g transform="translate(218.21875 270.918437) scale(0.1 -0.1)">
       <defs>
        <path id="DejaVuSans-31" d="M 794 531 
L 1825 531 
L 1825 4091 
L 703 3866 
L 703 4441 
L 1819 4666 
L 2450 4666 
L 2450 531 
L 3481 531 
L 3481 0 
L 794 0 
L 794 531 
z
" transform="scale(0.015625)"/>
       </defs>
       <use xlink:href="#DejaVuSans-31"/>
      </g>
     </g>
    </g>
    <g id="text_2">
     <!-- X axis -->
     <g transform="translate(206.36875 284.596563) scale(0.1 -0.1)">
      <defs>
       <path id="DejaVuSans-58" d="M 403 4666 
L 1081 4666 
L 2241 2931 
L 3406 4666 
L 4084 4666 
L 2584 2425 
L 4184 0 
L 3506 0 
L 2194 1984 
L 872 0 
L 191 0 
L 1856 2491 
L 403 4666 
z
" transform="scale(0.015625)"/>
       <path id="DejaVuSans-20" transform="scale(0.015625)"/>
       <path id="DejaVuSans-61" d="M 2194 1759 
Q 1497 1759 1228 1600 
Q 959 1441 959 1056 
Q 959 750 1161 570 
Q 1363 391 1709 391 
Q 2188 391 2477 730 
Q 2766 1069 2766 1631 
L 2766 1759 
L 2194 1759 
z
M 3341 1997 
L 3341 0 
L 2766 0 
L 2766 531 
Q 2569 213 2275 61 
Q 1981 -91 1556 -91 
Q 1019 -91 701 211 
Q 384 513 384 1019 
Q 384 1609 779 1909 
Q 1175 2209 1959 2209 
L 2766 2209 
L 2766 2266 
Q 2766 2663 2505 2880 
Q 2244 3097 1772 3097 
Q 1472 3097 1187 3025 
Q 903 2953 641 2809 
L 641 3341 
Q 956 3463 1253 3523 
Q 1550 3584 1831 3584 
Q 2591 3584 2966 3190 
Q 3341 2797 3341 1997 
z
" transform="scale(0.015625)"/>
       <path id="DejaVuSans-78" d="M 3513 3500 
L 2247 1797 
L 3578 0 
L 2900 0 
L 1881 1375 
L 863 0 
L 184 0 
L 1544 1831 
L 300 3500 
L 978 3500 
L 1906 2253 
L 2834 3500 
L 3513 3500 
z
" transform="scale(0.015625)"/>
       <path id="DejaVuSans-69" d="M 603 3500 
L 1178 3500 
L 1178 0 
L 603 0 
L 603 3500 
z
M 603 4863 
L 1178 4863 
L 1178 4134 
L 603 4134 
L 603 4863 
z
" transform="scale(0.015625)"/>
       <path id="DejaVuSans-73" d="M 2834 3397 
L 2834 2853 
Q 2591 2978 2328 3040 
Q 2066 3103 1784 3103 
Q 1356 3103 1142 2972 
Q 928 2841 928 2578 
Q 928 2378 1081 2264 
Q 1234 2150 1697 2047 
L 1894 2003 
Q 2506 1872 2764 1633 
Q 3022 1394 3022 966 
Q 3022 478 2636 193 
Q 2250 -91 1575 -91 
Q 1294 -91 989 -36 
Q 684 19 347 128 
L 347 722 
Q 666 556 975 473 
Q 1284 391 1588 391 
Q 1994 391 2212 530 
Q 2431 669 2431 922 
Q 2431 1156 2273 1281 
Q 2116 1406 1581 1522 
L 1381 1569 
Q 847 1681 609 1914 
Q 372 2147 372 2553 
Q 372 3047 722 3315 
Q 1072 3584 1716 3584 
Q 2034 3584 2315 3537 
Q 2597 3491 2834 3397 
z
" transform="scale(0.015625)"/>
      </defs>
      <use xlink:href="#DejaVuSans-58"/>
      <use xlink:href="#DejaVuSans-20" transform="translate(68.505859 0)"/>
      <use xlink:href="#DejaVuSans-61" transform="translate(100.292969 0)"/>
      <use xlink:href="#DejaVuSans-78" transform="translate(161.572266 0)"/>
      <use xlink:href="#DejaVuSans-69" transform="translate(220.751953 0)"/>
      <use xlink:href="#DejaVuSans-73" transform="translate(248.535156 0)"/>
     </g>
    </g>
   </g>
   <g id="matplotlib.axis_2">
    <g id="ytick_1">
     <g id="line2d_2">
      <defs>
       <path id="mb52b61421d" d="M 0 0 
L -3.5 0 
" style="stroke: #000000; stroke-width: 0.8"/>
      </defs>
      <g>
       <use xlink:href="#mb52b61421d" x="54" y="246.24" style="stroke: #000000; stroke-width: 0.8"/>
      </g>
     </g>
     <g id="text_3">
      <!-- 0 -->
      <g transform="translate(40.6375 250.039219) scale(0.1 -0.1)">
       <defs>
        <path id="DejaVuSans-30" d="M 2034 4250 
Q 1547 4250 1301 3770 
Q 1056 3291 1056 2328 
Q 1056 1369 1301 889 
Q 1547 409 2034 409 
Q 2525 409 2770 889 
Q 3016 1369 3016 2328 
Q 3016 3291 2770 3770 
Q 2525 4250 2034 4250 
z
M 2034 4750 
Q 2819 4750 3233 4129 
Q 3647 3509 3647 2328 
Q 3647 1150 3233 529 
Q 2819 -91 2034 -91 
Q 1250 -91 836 529 
Q 422 1150 422 2328 
Q 422 3509 836 4129 
Q 1250 4750 2034 4750 
z
" transform="scale(0.015625)"/>
       </defs>
       <use xlink:href="#DejaVuSans-30"/>
      </g>
     </g>
    </g>
    <g id="ytick_2">
     <g id="line2d_3">
      <g>
       <use xlink:href="#mb52b61421d" x="54" y="206.890301" style="stroke: #000000; stroke-width: 0.8"/>
      </g>
     </g>
     <g id="text_4">
      <!-- 100 -->
      <g transform="translate(27.9125 210.689519) scale(0.1 -0.1)">
       <use xlink:href="#DejaVuSans-31"/>
       <use xlink:href="#DejaVuSans-30" transform="translate(63.623047 0)"/>
       <use xlink:href="#DejaVuSans-30" transform="translate(127.246094 0)"/>
      </g>
     </g>
    </g>
    <g id="ytick_3">
     <g id="line2d_4">
      <g>
       <use xlink:href="#mb52b61421d" x="54" y="167.540601" style="stroke: #000000; stroke-width: 0.8"/>
      </g>
     </g>
     <g id="text_5">
      <!-- 200 -->
      <g transform="translate(27.9125 171.33982) scale(0.1 -0.1)">
       <defs>
        <path id="DejaVuSans-32" d="M 1228 531 
L 3431 531 
L 3431 0 
L 469 0 
L 469 531 
Q 828 903 1448 1529 
Q 2069 2156 2228 2338 
Q 2531 2678 2651 2914 
Q 2772 3150 2772 3378 
Q 2772 3750 2511 3984 
Q 2250 4219 1831 4219 
Q 1534 4219 1204 4116 
Q 875 4013 500 3803 
L 500 4441 
Q 881 4594 1212 4672 
Q 1544 4750 1819 4750 
Q 2544 4750 2975 4387 
Q 3406 4025 3406 3419 
Q 3406 3131 3298 2873 
Q 3191 2616 2906 2266 
Q 2828 2175 2409 1742 
Q 1991 1309 1228 531 
z
" transform="scale(0.015625)"/>
       </defs>
       <use xlink:href="#DejaVuSans-32"/>
       <use xlink:href="#DejaVuSans-30" transform="translate(63.623047 0)"/>
       <use xlink:href="#DejaVuSans-30" transform="translate(127.246094 0)"/>
      </g>
     </g>
    </g>
    <g id="ytick_4">
     <g id="line2d_5">
      <g>
       <use xlink:href="#mb52b61421d" x="54" y="128.190902" style="stroke: #000000; stroke-width: 0.8"/>
      </g>
     </g>
     <g id="text_6">
      <!-- 300 -->
      <g transform="translate(27.9125 131.990121) scale(0.1 -0.1)">
       <defs>
        <path id="DejaVuSans-33" d="M 2597 2516 
Q 3050 2419 3304 2112 
Q 3559 1806 3559 1356 
Q 3559 666 3084 287 
Q 2609 -91 1734 -91 
Q 1441 -91 1130 -33 
Q 819 25 488 141 
L 488 750 
Q 750 597 1062 519 
Q 1375 441 1716 441 
Q 2309 441 2620 675 
Q 2931 909 2931 1356 
Q 2931 1769 2642 2001 
Q 2353 2234 1838 2234 
L 1294 2234 
L 1294 2753 
L 1863 2753 
Q 2328 2753 2575 2939 
Q 2822 3125 2822 3475 
Q 2822 3834 2567 4026 
Q 2313 4219 1838 4219 
Q 1578 4219 1281 4162 
Q 984 4106 628 3988 
L 628 4550 
Q 988 4650 1302 4700 
Q 1616 4750 1894 4750 
Q 2613 4750 3031 4423 
Q 3450 4097 3450 3541 
Q 3450 3153 3228 2886 
Q 3006 2619 2597 2516 
z
" transform="scale(0.015625)"/>
       </defs>
       <use xlink:href="#DejaVuSans-33"/>
       <use xlink:href="#DejaVuSans-30" transform="translate(63.623047 0)"/>
       <use xlink:href="#DejaVuSans-30" transform="translate(127.246094 0)"/>
      </g>
     </g>
    </g>
    <g id="ytick_5">
     <g id="line2d_6">
      <g>
       <use xlink:href="#mb52b61421d" x="54" y="88.841203" style="stroke: #000000; stroke-width: 0.8"/>
      </g>
     </g>
     <g id="text_7">
      <!-- 400 -->
      <g transform="translate(27.9125 92.640421) scale(0.1 -0.1)">
       <defs>
        <path id="DejaVuSans-34" d="M 2419 4116 
L 825 1625 
L 2419 1625 
L 2419 4116 
z
M 2253 4666 
L 3047 4666 
L 3047 1625 
L 3713 1625 
L 3713 1100 
L 3047 1100 
L 3047 0 
L 2419 0 
L 2419 1100 
L 313 1100 
L 313 1709 
L 2253 4666 
z
" transform="scale(0.015625)"/>
       </defs>
       <use xlink:href="#DejaVuSans-34"/>
       <use xlink:href="#DejaVuSans-30" transform="translate(63.623047 0)"/>
       <use xlink:href="#DejaVuSans-30" transform="translate(127.246094 0)"/>
      </g>
     </g>
    </g>
    <g id="ytick_6">
     <g id="line2d_7">
      <g>
       <use xlink:href="#mb52b61421d" x="54" y="49.491503" style="stroke: #000000; stroke-width: 0.8"/>
      </g>
     </g>
     <g id="text_8">
      <!-- 500 -->
      <g transform="translate(27.9125 53.290722) scale(0.1 -0.1)">
       <defs>
        <path id="DejaVuSans-35" d="M 691 4666 
L 3169 4666 
L 3169 4134 
L 1269 4134 
L 1269 2991 
Q 1406 3038 1543 3061 
Q 1681 3084 1819 3084 
Q 2600 3084 3056 2656 
Q 3513 2228 3513 1497 
Q 3513 744 3044 326 
Q 2575 -91 1722 -91 
Q 1428 -91 1123 -41 
Q 819 9 494 109 
L 494 744 
Q 775 591 1075 516 
Q 1375 441 1709 441 
Q 2250 441 2565 725 
Q 2881 1009 2881 1497 
Q 2881 1984 2565 2268 
Q 2250 2553 1709 2553 
Q 1456 2553 1204 2497 
Q 953 2441 691 2322 
L 691 4666 
z
" transform="scale(0.015625)"/>
       </defs>
       <use xlink:href="#DejaVuSans-35"/>
       <use xlink:href="#DejaVuSans-30" transform="translate(63.623047 0)"/>
       <use xlink:href="#DejaVuSans-30" transform="translate(127.246094 0)"/>
      </g>
     </g>
    </g>
    <g id="text_9">
     <!-- Y axis -->
     <g transform="translate(21.832812 160.100156) rotate(-90) scale(0.1 -0.1)">
      <defs>
       <path id="DejaVuSans-59" d="M -13 4666 
L 666 4666 
L 1959 2747 
L 3244 4666 
L 3922 4666 
L 2272 2222 
L 2272 0 
L 1638 0 
L 1638 2222 
L -13 4666 
z
" transform="scale(0.015625)"/>
      </defs>
      <use xlink:href="#DejaVuSans-59"/>
      <use xlink:href="#DejaVuSans-20" transform="translate(61.083984 0)"/>
      <use xlink:href="#DejaVuSans-61" transform="translate(92.871094 0)"/>
      <use xlink:href="#DejaVuSans-78" transform="translate(154.150391 0)"/>
      <use xlink:href="#DejaVuSans-69" transform="translate(213.330078 0)"/>
      <use xlink:href="#DejaVuSans-73" transform="translate(241.113281 0)"/>
     </g>
    </g>
   </g>
   <g id="line2d_8">
    <path d="M 196.29 243.127281 
L 246.51 243.127281 
L 246.51 234.041593 
L 196.29 234.041593 
L 196.29 243.127281 
" clip-path="url(#pb0504a9e2e)" style="fill: none; stroke: #000000; stroke-linecap: square"/>
   </g>
   <g id="line2d_9">
    <path d="M 221.4 243.127281 
L 221.4 246.24 
" clip-path="url(#pb0504a9e2e)" style="fill: none; stroke: #000000; stroke-linecap: square"/>
   </g>
   <g id="line2d_10">
    <path d="M 221.4 234.041593 
L 221.4 220.662695 
" clip-path="url(#pb0504a9e2e)" style="fill: none; stroke: #000000; stroke-linecap: square"/>
   </g>
   <g id="line2d_11">
    <path d="M 208.845 246.24 
L 233.955 246.24 
" clip-path="url(#pb0504a9e2e)" style="fill: none; stroke: #000000; stroke-linecap: square"/>
   </g>
   <g id="line2d_12">
    <path d="M 208.845 220.662695 
L 233.955 220.662695 
" clip-path="url(#pb0504a9e2e)" style="fill: none; stroke: #000000; stroke-linecap: square"/>
   </g>
   <g id="line2d_13">
    <defs>
     <path id="mb6b690d217" d="M 0 3 
C 0.795609 3 1.55874 2.683901 2.12132 2.12132 
C 2.683901 1.55874 3 0.795609 3 0 
C 3 -0.795609 2.683901 -1.55874 2.12132 -2.12132 
C 1.55874 -2.683901 0.795609 -3 0 -3 
C -0.795609 -3 -1.55874 -2.683901 -2.12132 -2.12132 
C -2.683901 -1.55874 -3 -0.795609 -3 0 
C -3 0.795609 -2.683901 1.55874 -2.12132 2.12132 
C -1.55874 2.683901 -0.795609 3 0 3 
z
" style="stroke: #000000"/>
    </defs>
    <g clip-path="url(#pb0504a9e2e)">
     <use xlink:href="#mb6b690d217" x="221.4" y="218.190236" style="fill-opacity: 0; stroke: #000000"/>
     <use xlink:href="#mb6b690d217" x="221.4" y="142.750291" style="fill-opacity: 0; stroke: #000000"/>
     <use xlink:href="#mb6b690d217" x="221.4" y="188.584506" style="fill-opacity: 0; stroke: #000000"/>
     <use xlink:href="#mb6b690d217" x="221.4" y="213.906037" style="fill-opacity: 0; stroke: #000000"/>
     <use xlink:href="#mb6b690d217" x="221.4" y="216.04729" style="fill-opacity: 0; stroke: #000000"/>
     <use xlink:href="#mb6b690d217" x="221.4" y="214.760241" style="fill-opacity: 0; stroke: #000000"/>
     <use xlink:href="#mb6b690d217" x="221.4" y="213.392838" style="fill-opacity: 0; stroke: #000000"/>
     <use xlink:href="#mb6b690d217" x="221.4" y="217.317971" style="fill-opacity: 0; stroke: #000000"/>
     <use xlink:href="#mb6b690d217" x="221.4" y="142.750291" style="fill-opacity: 0; stroke: #000000"/>
     <use xlink:href="#mb6b690d217" x="221.4" y="215.827601" style="fill-opacity: 0; stroke: #000000"/>
     <use xlink:href="#mb6b690d217" x="221.4" y="148.841309" style="fill-opacity: 0; stroke: #000000"/>
     <use xlink:href="#mb6b690d217" x="221.4" y="217.317971" style="fill-opacity: 0; stroke: #000000"/>
     <use xlink:href="#mb6b690d217" x="221.4" y="215.827601" style="fill-opacity: 0; stroke: #000000"/>
     <use xlink:href="#mb6b690d217" x="221.4" y="215.075038" style="fill-opacity: 0; stroke: #000000"/>
     <use xlink:href="#mb6b690d217" x="221.4" y="220.0331" style="fill-opacity: 0; stroke: #000000"/>
     <use xlink:href="#mb6b690d217" x="221.4" y="218.872284" style="fill-opacity: 0; stroke: #000000"/>
     <use xlink:href="#mb6b690d217" x="221.4" y="218.872284" style="fill-opacity: 0; stroke: #000000"/>
     <use xlink:href="#mb6b690d217" x="221.4" y="188.584506" style="fill-opacity: 0; stroke: #000000"/>
     <use xlink:href="#mb6b690d217" x="221.4" y="218.872284" style="fill-opacity: 0; stroke: #000000"/>
     <use xlink:href="#mb6b690d217" x="221.4" y="201.666628" style="fill-opacity: 0; stroke: #000000"/>
     <use xlink:href="#mb6b690d217" x="221.4" y="216.219445" style="fill-opacity: 0; stroke: #000000"/>
     <use xlink:href="#mb6b690d217" x="221.4" y="210.825271" style="fill-opacity: 0; stroke: #000000"/>
     <use xlink:href="#mb6b690d217" x="221.4" y="213.392838" style="fill-opacity: 0; stroke: #000000"/>
     <use xlink:href="#mb6b690d217" x="221.4" y="210.825271" style="fill-opacity: 0; stroke: #000000"/>
     <use xlink:href="#mb6b690d217" x="221.4" y="215.075038" style="fill-opacity: 0; stroke: #000000"/>
     <use xlink:href="#mb6b690d217" x="221.4" y="212.20251" style="fill-opacity: 0; stroke: #000000"/>
     <use xlink:href="#mb6b690d217" x="221.4" y="44.64" style="fill-opacity: 0; stroke: #000000"/>
     <use xlink:href="#mb6b690d217" x="221.4" y="214.897964" style="fill-opacity: 0; stroke: #000000"/>
     <use xlink:href="#mb6b690d217" x="221.4" y="185.852968" style="fill-opacity: 0; stroke: #000000"/>
     <use xlink:href="#mb6b690d217" x="221.4" y="192.868704" style="fill-opacity: 0; stroke: #000000"/>
     <use xlink:href="#mb6b690d217" x="221.4" y="215.563643" style="fill-opacity: 0; stroke: #000000"/>
     <use xlink:href="#mb6b690d217" x="221.4" y="215.212762" style="fill-opacity: 0; stroke: #000000"/>
     <use xlink:href="#mb6b690d217" x="221.4" y="210.400609" style="fill-opacity: 0; stroke: #000000"/>
     <use xlink:href="#mb6b690d217" x="221.4" y="186.605531" style="fill-opacity: 0; stroke: #000000"/>
     <use xlink:href="#mb6b690d217" x="221.4" y="148.841309" style="fill-opacity: 0; stroke: #000000"/>
     <use xlink:href="#mb6b690d217" x="221.4" y="186.605531" style="fill-opacity: 0; stroke: #000000"/>
     <use xlink:href="#mb6b690d217" x="221.4" y="202.607755" style="fill-opacity: 0; stroke: #000000"/>
     <use xlink:href="#mb6b690d217" x="221.4" y="203.388177" style="fill-opacity: 0; stroke: #000000"/>
     <use xlink:href="#mb6b690d217" x="221.4" y="213.517459" style="fill-opacity: 0; stroke: #000000"/>
     <use xlink:href="#mb6b690d217" x="221.4" y="142.996226" style="fill-opacity: 0; stroke: #000000"/>
     <use xlink:href="#mb6b690d217" x="221.4" y="181.365449" style="fill-opacity: 0; stroke: #000000"/>
     <use xlink:href="#mb6b690d217" x="221.4" y="193.314654" style="fill-opacity: 0; stroke: #000000"/>
     <use xlink:href="#mb6b690d217" x="221.4" y="218.872284" style="fill-opacity: 0; stroke: #000000"/>
     <use xlink:href="#mb6b690d217" x="221.4" y="192.868704" style="fill-opacity: 0; stroke: #000000"/>
     <use xlink:href="#mb6b690d217" x="221.4" y="185.852968" style="fill-opacity: 0; stroke: #000000"/>
     <use xlink:href="#mb6b690d217" x="221.4" y="193.649127" style="fill-opacity: 0; stroke: #000000"/>
     <use xlink:href="#mb6b690d217" x="221.4" y="220.0331" style="fill-opacity: 0; stroke: #000000"/>
     <use xlink:href="#mb6b690d217" x="221.4" y="193.314654" style="fill-opacity: 0; stroke: #000000"/>
     <use xlink:href="#mb6b690d217" x="221.4" y="142.750291" style="fill-opacity: 0; stroke: #000000"/>
     <use xlink:href="#mb6b690d217" x="221.4" y="216.629351" style="fill-opacity: 0; stroke: #000000"/>
     <use xlink:href="#mb6b690d217" x="221.4" y="218.970658" style="fill-opacity: 0; stroke: #000000"/>
     <use xlink:href="#mb6b690d217" x="221.4" y="192.868704" style="fill-opacity: 0; stroke: #000000"/>
     <use xlink:href="#mb6b690d217" x="221.4" y="213.906037" style="fill-opacity: 0; stroke: #000000"/>
     <use xlink:href="#mb6b690d217" x="221.4" y="163.015386" style="fill-opacity: 0; stroke: #000000"/>
     <use xlink:href="#mb6b690d217" x="221.4" y="156.709597" style="fill-opacity: 0; stroke: #000000"/>
     <use xlink:href="#mb6b690d217" x="221.4" y="217.317971" style="fill-opacity: 0; stroke: #000000"/>
     <use xlink:href="#mb6b690d217" x="221.4" y="199.020361" style="fill-opacity: 0; stroke: #000000"/>
     <use xlink:href="#mb6b690d217" x="221.4" y="201.666628" style="fill-opacity: 0; stroke: #000000"/>
     <use xlink:href="#mb6b690d217" x="221.4" y="210.825271" style="fill-opacity: 0; stroke: #000000"/>
     <use xlink:href="#mb6b690d217" x="221.4" y="199.020361" style="fill-opacity: 0; stroke: #000000"/>
     <use xlink:href="#mb6b690d217" x="221.4" y="142.750291" style="fill-opacity: 0; stroke: #000000"/>
     <use xlink:href="#mb6b690d217" x="221.4" y="214.029005" style="fill-opacity: 0; stroke: #000000"/>
     <use xlink:href="#mb6b690d217" x="221.4" y="211.177765" style="fill-opacity: 0; stroke: #000000"/>
     <use xlink:href="#mb6b690d217" x="221.4" y="210.400609" style="fill-opacity: 0; stroke: #000000"/>
     <use xlink:href="#mb6b690d217" x="221.4" y="210.825271" style="fill-opacity: 0; stroke: #000000"/>
     <use xlink:href="#mb6b690d217" x="221.4" y="215.442289" style="fill-opacity: 0; stroke: #000000"/>
     <use xlink:href="#mb6b690d217" x="221.4" y="186.605531" style="fill-opacity: 0; stroke: #000000"/>
     <use xlink:href="#mb6b690d217" x="221.4" y="212.20251" style="fill-opacity: 0; stroke: #000000"/>
     <use xlink:href="#mb6b690d217" x="221.4" y="203.388177" style="fill-opacity: 0; stroke: #000000"/>
     <use xlink:href="#mb6b690d217" x="221.4" y="209.448031" style="fill-opacity: 0; stroke: #000000"/>
     <use xlink:href="#mb6b690d217" x="221.4" y="158.970552" style="fill-opacity: 0; stroke: #000000"/>
     <use xlink:href="#mb6b690d217" x="221.4" y="204.362082" style="fill-opacity: 0; stroke: #000000"/>
     <use xlink:href="#mb6b690d217" x="221.4" y="218.301713" style="fill-opacity: 0; stroke: #000000"/>
     <use xlink:href="#mb6b690d217" x="221.4" y="204.362082" style="fill-opacity: 0; stroke: #000000"/>
     <use xlink:href="#mb6b690d217" x="221.4" y="202.607755" style="fill-opacity: 0; stroke: #000000"/>
     <use xlink:href="#mb6b690d217" x="221.4" y="156.709597" style="fill-opacity: 0; stroke: #000000"/>
     <use xlink:href="#mb6b690d217" x="221.4" y="214.897964" style="fill-opacity: 0; stroke: #000000"/>
     <use xlink:href="#mb6b690d217" x="221.4" y="202.607755" style="fill-opacity: 0; stroke: #000000"/>
     <use xlink:href="#mb6b690d217" x="221.4" y="214.897964" style="fill-opacity: 0; stroke: #000000"/>
     <use xlink:href="#mb6b690d217" x="221.4" y="215.075038" style="fill-opacity: 0; stroke: #000000"/>
     <use xlink:href="#mb6b690d217" x="221.4" y="215.442289" style="fill-opacity: 0; stroke: #000000"/>
     <use xlink:href="#mb6b690d217" x="221.4" y="185.852968" style="fill-opacity: 0; stroke: #000000"/>
     <use xlink:href="#mb6b690d217" x="221.4" y="215.563643" style="fill-opacity: 0; stroke: #000000"/>
     <use xlink:href="#mb6b690d217" x="221.4" y="218.970658" style="fill-opacity: 0; stroke: #000000"/>
     <use xlink:href="#mb6b690d217" x="221.4" y="216.04729" style="fill-opacity: 0; stroke: #000000"/>
     <use xlink:href="#mb6b690d217" x="221.4" y="217.317971" style="fill-opacity: 0; stroke: #000000"/>
     <use xlink:href="#mb6b690d217" x="221.4" y="201.666628" style="fill-opacity: 0; stroke: #000000"/>
     <use xlink:href="#mb6b690d217" x="221.4" y="193.649127" style="fill-opacity: 0; stroke: #000000"/>
     <use xlink:href="#mb6b690d217" x="221.4" y="217.317971" style="fill-opacity: 0; stroke: #000000"/>
     <use xlink:href="#mb6b690d217" x="221.4" y="44.64" style="fill-opacity: 0; stroke: #000000"/>
     <use xlink:href="#mb6b690d217" x="221.4" y="216.04729" style="fill-opacity: 0; stroke: #000000"/>
     <use xlink:href="#mb6b690d217" x="221.4" y="163.079329" style="fill-opacity: 0; stroke: #000000"/>
     <use xlink:href="#mb6b690d217" x="221.4" y="202.607755" style="fill-opacity: 0; stroke: #000000"/>
     <use xlink:href="#mb6b690d217" x="221.4" y="156.709597" style="fill-opacity: 0; stroke: #000000"/>
     <use xlink:href="#mb6b690d217" x="221.4" y="186.605531" style="fill-opacity: 0; stroke: #000000"/>
     <use xlink:href="#mb6b690d217" x="221.4" y="156.709597" style="fill-opacity: 0; stroke: #000000"/>
     <use xlink:href="#mb6b690d217" x="221.4" y="163.079329" style="fill-opacity: 0; stroke: #000000"/>
     <use xlink:href="#mb6b690d217" x="221.4" y="44.64" style="fill-opacity: 0; stroke: #000000"/>
     <use xlink:href="#mb6b690d217" x="221.4" y="215.212762" style="fill-opacity: 0; stroke: #000000"/>
     <use xlink:href="#mb6b690d217" x="221.4" y="142.996226" style="fill-opacity: 0; stroke: #000000"/>
     <use xlink:href="#mb6b690d217" x="221.4" y="218.301713" style="fill-opacity: 0; stroke: #000000"/>
     <use xlink:href="#mb6b690d217" x="221.4" y="212.20251" style="fill-opacity: 0; stroke: #000000"/>
     <use xlink:href="#mb6b690d217" x="221.4" y="199.020361" style="fill-opacity: 0; stroke: #000000"/>
     <use xlink:href="#mb6b690d217" x="221.4" y="215.563643" style="fill-opacity: 0; stroke: #000000"/>
     <use xlink:href="#mb6b690d217" x="221.4" y="163.079329" style="fill-opacity: 0; stroke: #000000"/>
     <use xlink:href="#mb6b690d217" x="221.4" y="215.075038" style="fill-opacity: 0; stroke: #000000"/>
     <use xlink:href="#mb6b690d217" x="221.4" y="218.872284" style="fill-opacity: 0; stroke: #000000"/>
     <use xlink:href="#mb6b690d217" x="221.4" y="199.020361" style="fill-opacity: 0; stroke: #000000"/>
     <use xlink:href="#mb6b690d217" x="221.4" y="209.448031" style="fill-opacity: 0; stroke: #000000"/>
     <use xlink:href="#mb6b690d217" x="221.4" y="214.760241" style="fill-opacity: 0; stroke: #000000"/>
     <use xlink:href="#mb6b690d217" x="221.4" y="213.517459" style="fill-opacity: 0; stroke: #000000"/>
     <use xlink:href="#mb6b690d217" x="221.4" y="218.872284" style="fill-opacity: 0; stroke: #000000"/>
     <use xlink:href="#mb6b690d217" x="221.4" y="211.177765" style="fill-opacity: 0; stroke: #000000"/>
     <use xlink:href="#mb6b690d217" x="221.4" y="181.365449" style="fill-opacity: 0; stroke: #000000"/>
     <use xlink:href="#mb6b690d217" x="221.4" y="218.872284" style="fill-opacity: 0; stroke: #000000"/>
     <use xlink:href="#mb6b690d217" x="221.4" y="213.517459" style="fill-opacity: 0; stroke: #000000"/>
    </g>
   </g>
   <g id="line2d_14">
    <path d="M 196.29 240.552316 
L 246.51 240.552316 
" clip-path="url(#pb0504a9e2e)" style="fill: none; stroke: #ff7f0e"/>
   </g>
   <g id="patch_3">
    <path d="M 54 256.32 
L 54 34.56 
" style="fill: none; stroke: #000000; stroke-width: 0.8; stroke-linejoin: miter; stroke-linecap: square"/>
   </g>
   <g id="patch_4">
    <path d="M 388.8 256.32 
L 388.8 34.56 
" style="fill: none; stroke: #000000; stroke-width: 0.8; stroke-linejoin: miter; stroke-linecap: square"/>
   </g>
   <g id="patch_5">
    <path d="M 54 256.32 
L 388.8 256.32 
" style="fill: none; stroke: #000000; stroke-width: 0.8; stroke-linejoin: miter; stroke-linecap: square"/>
   </g>
   <g id="patch_6">
    <path d="M 54 34.56 
L 388.8 34.56 
" style="fill: none; stroke: #000000; stroke-width: 0.8; stroke-linejoin: miter; stroke-linecap: square"/>
   </g>
   <g id="text_10">
    <!-- Box Plot -->
    <g transform="translate(197.033437 28.56) scale(0.12 -0.12)">
     <defs>
      <path id="DejaVuSans-42" d="M 1259 2228 
L 1259 519 
L 2272 519 
Q 2781 519 3026 730 
Q 3272 941 3272 1375 
Q 3272 1813 3026 2020 
Q 2781 2228 2272 2228 
L 1259 2228 
z
M 1259 4147 
L 1259 2741 
L 2194 2741 
Q 2656 2741 2882 2914 
Q 3109 3088 3109 3444 
Q 3109 3797 2882 3972 
Q 2656 4147 2194 4147 
L 1259 4147 
z
M 628 4666 
L 2241 4666 
Q 2963 4666 3353 4366 
Q 3744 4066 3744 3513 
Q 3744 3084 3544 2831 
Q 3344 2578 2956 2516 
Q 3422 2416 3680 2098 
Q 3938 1781 3938 1306 
Q 3938 681 3513 340 
Q 3088 0 2303 0 
L 628 0 
L 628 4666 
z
" transform="scale(0.015625)"/>
      <path id="DejaVuSans-6f" d="M 1959 3097 
Q 1497 3097 1228 2736 
Q 959 2375 959 1747 
Q 959 1119 1226 758 
Q 1494 397 1959 397 
Q 2419 397 2687 759 
Q 2956 1122 2956 1747 
Q 2956 2369 2687 2733 
Q 2419 3097 1959 3097 
z
M 1959 3584 
Q 2709 3584 3137 3096 
Q 3566 2609 3566 1747 
Q 3566 888 3137 398 
Q 2709 -91 1959 -91 
Q 1206 -91 779 398 
Q 353 888 353 1747 
Q 353 2609 779 3096 
Q 1206 3584 1959 3584 
z
" transform="scale(0.015625)"/>
      <path id="DejaVuSans-50" d="M 1259 4147 
L 1259 2394 
L 2053 2394 
Q 2494 2394 2734 2622 
Q 2975 2850 2975 3272 
Q 2975 3691 2734 3919 
Q 2494 4147 2053 4147 
L 1259 4147 
z
M 628 4666 
L 2053 4666 
Q 2838 4666 3239 4311 
Q 3641 3956 3641 3272 
Q 3641 2581 3239 2228 
Q 2838 1875 2053 1875 
L 1259 1875 
L 1259 0 
L 628 0 
L 628 4666 
z
" transform="scale(0.015625)"/>
      <path id="DejaVuSans-6c" d="M 603 4863 
L 1178 4863 
L 1178 0 
L 603 0 
L 603 4863 
z
" transform="scale(0.015625)"/>
      <path id="DejaVuSans-74" d="M 1172 4494 
L 1172 3500 
L 2356 3500 
L 2356 3053 
L 1172 3053 
L 1172 1153 
Q 1172 725 1289 603 
Q 1406 481 1766 481 
L 2356 481 
L 2356 0 
L 1766 0 
Q 1100 0 847 248 
Q 594 497 594 1153 
L 594 3053 
L 172 3053 
L 172 3500 
L 594 3500 
L 594 4494 
L 1172 4494 
z
" transform="scale(0.015625)"/>
     </defs>
     <use xlink:href="#DejaVuSans-42"/>
     <use xlink:href="#DejaVuSans-6f" transform="translate(68.603516 0)"/>
     <use xlink:href="#DejaVuSans-78" transform="translate(126.660156 0)"/>
     <use xlink:href="#DejaVuSans-20" transform="translate(185.839844 0)"/>
     <use xlink:href="#DejaVuSans-50" transform="translate(217.626953 0)"/>
     <use xlink:href="#DejaVuSans-6c" transform="translate(277.929688 0)"/>
     <use xlink:href="#DejaVuSans-6f" transform="translate(305.712891 0)"/>
     <use xlink:href="#DejaVuSans-74" transform="translate(366.894531 0)"/>
    </g>
   </g>
  </g>
 </g>
 <defs>
  <clipPath id="pb0504a9e2e">
   <rect x="54" y="34.56" width="334.8" height="221.76"/>
  </clipPath>
 </defs>
</svg>
